<mxfile host="app.diagrams.net" modified="2021-10-26T13:24:18.413Z" agent="5.0 (Windows NT 10.0; Win64; x64) AppleWebKit/537.36 (KHTML, like Gecko) Chrome/94.0.4606.81 Safari/537.36" etag="yUYildSM3zE5HRdVAmum" version="15.5.9" type="github">
  <diagram id="C5RBs43oDa-KdzZeNtuy" name="Page-1">
    <mxGraphModel dx="2062" dy="1057" grid="1" gridSize="10" guides="1" tooltips="1" connect="1" arrows="1" fold="1" page="1" pageScale="1" pageWidth="827" pageHeight="1169" math="0" shadow="0">
      <root>
        <mxCell id="WIyWlLk6GJQsqaUBKTNV-0" />
        <mxCell id="WIyWlLk6GJQsqaUBKTNV-1" parent="WIyWlLk6GJQsqaUBKTNV-0" />
        <mxCell id="7sS6LOVP2ENTe_2VxdWP-2" style="edgeStyle=orthogonalEdgeStyle;rounded=0;sketch=1;orthogonalLoop=1;jettySize=auto;html=1;entryX=0.5;entryY=0;entryDx=0;entryDy=0;" edge="1" parent="WIyWlLk6GJQsqaUBKTNV-1" source="7sS6LOVP2ENTe_2VxdWP-0" target="7sS6LOVP2ENTe_2VxdWP-1">
          <mxGeometry relative="1" as="geometry" />
        </mxCell>
        <mxCell id="7sS6LOVP2ENTe_2VxdWP-0" value="Commencer" style="strokeWidth=2;html=1;shape=mxgraph.flowchart.start_1;whiteSpace=wrap;sketch=1;fontFamily=IBM Plex Mono;fontSource=https%3A%2F%2Ffonts.googleapis.com%2Fcss%3Ffamily%3DIBM%2BPlex%2BMono;fontStyle=1;fontSize=14;fillColor=#d5e8d4;strokeColor=#82b366;fillStyle=solid;" vertex="1" parent="WIyWlLk6GJQsqaUBKTNV-1">
          <mxGeometry x="364" y="40" width="100" height="60" as="geometry" />
        </mxCell>
        <mxCell id="7sS6LOVP2ENTe_2VxdWP-23" style="edgeStyle=orthogonalEdgeStyle;rounded=0;sketch=1;orthogonalLoop=1;jettySize=auto;html=1;entryX=0.5;entryY=0;entryDx=0;entryDy=0;fontFamily=IBM Plex Mono;fontSource=https%3A%2F%2Ffonts.googleapis.com%2Fcss%3Ffamily%3DIBM%2BPlex%2BMono;fontSize=14;" edge="1" parent="WIyWlLk6GJQsqaUBKTNV-1" source="7sS6LOVP2ENTe_2VxdWP-1" target="7sS6LOVP2ENTe_2VxdWP-16">
          <mxGeometry relative="1" as="geometry" />
        </mxCell>
        <mxCell id="7sS6LOVP2ENTe_2VxdWP-1" value="recherche&lt;br style=&quot;font-size: 14px;&quot;&gt;cible" style="shape=parallelogram;perimeter=parallelogramPerimeter;whiteSpace=wrap;html=1;fixedSize=1;sketch=1;fontFamily=IBM Plex Mono;fontSource=https%3A%2F%2Ffonts.googleapis.com%2Fcss%3Ffamily%3DIBM%2BPlex%2BMono;fontStyle=1;fontSize=14;fillColor=#ffe6cc;strokeColor=#d79b00;fillStyle=solid;" vertex="1" parent="WIyWlLk6GJQsqaUBKTNV-1">
          <mxGeometry x="354" y="160" width="120" height="60" as="geometry" />
        </mxCell>
        <mxCell id="7sS6LOVP2ENTe_2VxdWP-6" value="cible" style="shape=table;startSize=40;container=1;collapsible=0;childLayout=tableLayout;fixedRows=1;rowLines=0;fontStyle=1;align=center;pointerEvents=1;rounded=1;shadow=0;glass=0;labelBorderColor=none;sketch=1;fillStyle=solid;fontFamily=IBM Plex Mono;fontSource=https%3A%2F%2Ffonts.googleapis.com%2Fcss%3Ffamily%3DIBM%2BPlex%2BMono;fontSize=18;strokeColor=default;strokeWidth=1;fillColor=#fff2cc;swimlaneFillColor=default;" vertex="1" parent="WIyWlLk6GJQsqaUBKTNV-1">
          <mxGeometry x="340" y="960" width="460" height="160" as="geometry" />
        </mxCell>
        <mxCell id="7sS6LOVP2ENTe_2VxdWP-7" value="" style="shape=partialRectangle;html=1;whiteSpace=wrap;collapsible=0;dropTarget=0;pointerEvents=1;fillColor=none;top=0;left=0;bottom=1;right=0;points=[[0,0.5],[1,0.5]];portConstraint=eastwest;rounded=1;shadow=0;glass=0;labelBorderColor=none;sketch=1;fillStyle=solid;fontFamily=IBM Plex Mono;fontSource=https%3A%2F%2Ffonts.googleapis.com%2Fcss%3Ffamily%3DIBM%2BPlex%2BMono;fontSize=18;strokeColor=default;strokeWidth=2;align=center;" vertex="1" parent="7sS6LOVP2ENTe_2VxdWP-6">
          <mxGeometry y="40" width="460" height="40" as="geometry" />
        </mxCell>
        <mxCell id="7sS6LOVP2ENTe_2VxdWP-8" value="1" style="shape=partialRectangle;html=1;whiteSpace=wrap;connectable=0;fillColor=none;top=0;left=0;bottom=0;right=0;overflow=hidden;pointerEvents=1;rounded=1;shadow=0;glass=0;labelBorderColor=none;sketch=1;fillStyle=solid;fontFamily=IBM Plex Mono;fontSource=https%3A%2F%2Ffonts.googleapis.com%2Fcss%3Ffamily%3DIBM%2BPlex%2BMono;fontSize=18;strokeColor=default;strokeWidth=2;align=center;" vertex="1" parent="7sS6LOVP2ENTe_2VxdWP-7">
          <mxGeometry width="40" height="40" as="geometry">
            <mxRectangle width="40" height="40" as="alternateBounds" />
          </mxGeometry>
        </mxCell>
        <mxCell id="7sS6LOVP2ENTe_2VxdWP-9" value="{id: 1, terms: &#39;ail oignon...&#39;}" style="shape=partialRectangle;html=1;whiteSpace=wrap;connectable=0;fillColor=none;top=0;left=0;bottom=0;right=0;align=left;spacingLeft=6;overflow=hidden;pointerEvents=1;rounded=1;shadow=0;glass=0;labelBorderColor=none;sketch=1;fillStyle=solid;fontFamily=IBM Plex Mono;fontSource=https%3A%2F%2Ffonts.googleapis.com%2Fcss%3Ffamily%3DIBM%2BPlex%2BMono;fontSize=18;strokeColor=none;strokeWidth=2;" vertex="1" parent="7sS6LOVP2ENTe_2VxdWP-7">
          <mxGeometry x="40" width="420" height="40" as="geometry">
            <mxRectangle width="420" height="40" as="alternateBounds" />
          </mxGeometry>
        </mxCell>
        <mxCell id="7sS6LOVP2ENTe_2VxdWP-10" value="" style="shape=partialRectangle;html=1;whiteSpace=wrap;collapsible=0;dropTarget=0;pointerEvents=1;fillColor=none;top=0;left=0;bottom=0;right=0;points=[[0,0.5],[1,0.5]];portConstraint=eastwest;rounded=1;shadow=0;glass=0;labelBorderColor=none;sketch=1;fillStyle=solid;fontFamily=IBM Plex Mono;fontSource=https%3A%2F%2Ffonts.googleapis.com%2Fcss%3Ffamily%3DIBM%2BPlex%2BMono;fontSize=18;strokeColor=default;strokeWidth=2;align=center;" vertex="1" parent="7sS6LOVP2ENTe_2VxdWP-6">
          <mxGeometry y="80" width="460" height="40" as="geometry" />
        </mxCell>
        <mxCell id="7sS6LOVP2ENTe_2VxdWP-11" value="..." style="shape=partialRectangle;html=1;whiteSpace=wrap;connectable=0;fillColor=none;top=0;left=0;bottom=0;right=0;overflow=hidden;pointerEvents=1;rounded=1;shadow=0;glass=0;labelBorderColor=none;sketch=1;fillStyle=solid;fontFamily=IBM Plex Mono;fontSource=https%3A%2F%2Ffonts.googleapis.com%2Fcss%3Ffamily%3DIBM%2BPlex%2BMono;fontSize=18;strokeColor=default;strokeWidth=2;align=center;" vertex="1" parent="7sS6LOVP2ENTe_2VxdWP-10">
          <mxGeometry width="40" height="40" as="geometry">
            <mxRectangle width="40" height="40" as="alternateBounds" />
          </mxGeometry>
        </mxCell>
        <mxCell id="7sS6LOVP2ENTe_2VxdWP-12" value="..." style="shape=partialRectangle;html=1;whiteSpace=wrap;connectable=0;fillColor=none;top=0;left=0;bottom=0;right=0;align=left;spacingLeft=6;overflow=hidden;pointerEvents=1;rounded=1;shadow=0;glass=0;labelBorderColor=none;sketch=1;fillStyle=solid;fontFamily=IBM Plex Mono;fontSource=https%3A%2F%2Ffonts.googleapis.com%2Fcss%3Ffamily%3DIBM%2BPlex%2BMono;fontSize=18;strokeColor=default;strokeWidth=2;perimeterSpacing=1;" vertex="1" parent="7sS6LOVP2ENTe_2VxdWP-10">
          <mxGeometry x="40" width="420" height="40" as="geometry">
            <mxRectangle width="420" height="40" as="alternateBounds" />
          </mxGeometry>
        </mxCell>
        <mxCell id="7sS6LOVP2ENTe_2VxdWP-13" value="" style="shape=partialRectangle;html=1;whiteSpace=wrap;collapsible=0;dropTarget=0;pointerEvents=1;fillColor=none;top=0;left=0;bottom=0;right=0;points=[[0,0.5],[1,0.5]];portConstraint=eastwest;rounded=1;shadow=0;glass=0;labelBorderColor=none;sketch=1;fillStyle=solid;fontFamily=IBM Plex Mono;fontSource=https%3A%2F%2Ffonts.googleapis.com%2Fcss%3Ffamily%3DIBM%2BPlex%2BMono;fontSize=18;strokeColor=default;strokeWidth=2;align=center;" vertex="1" parent="7sS6LOVP2ENTe_2VxdWP-6">
          <mxGeometry y="120" width="460" height="30" as="geometry" />
        </mxCell>
        <mxCell id="7sS6LOVP2ENTe_2VxdWP-14" value="x" style="shape=partialRectangle;html=1;whiteSpace=wrap;connectable=0;fillColor=none;top=0;left=0;bottom=0;right=0;overflow=hidden;pointerEvents=1;rounded=1;shadow=0;glass=0;labelBorderColor=none;sketch=1;fillStyle=solid;fontFamily=IBM Plex Mono;fontSource=https%3A%2F%2Ffonts.googleapis.com%2Fcss%3Ffamily%3DIBM%2BPlex%2BMono;fontSize=18;strokeColor=default;strokeWidth=2;align=center;" vertex="1" parent="7sS6LOVP2ENTe_2VxdWP-13">
          <mxGeometry width="40" height="30" as="geometry">
            <mxRectangle width="40" height="30" as="alternateBounds" />
          </mxGeometry>
        </mxCell>
        <mxCell id="7sS6LOVP2ENTe_2VxdWP-15" value="{id: y, terms: &#39;term1 term2 termZ...}" style="shape=partialRectangle;html=1;whiteSpace=wrap;connectable=0;fillColor=none;top=0;left=0;bottom=0;right=0;align=left;spacingLeft=6;overflow=hidden;pointerEvents=1;rounded=1;shadow=0;glass=0;labelBorderColor=none;sketch=1;fillStyle=solid;fontFamily=IBM Plex Mono;fontSource=https%3A%2F%2Ffonts.googleapis.com%2Fcss%3Ffamily%3DIBM%2BPlex%2BMono;fontSize=18;strokeColor=default;strokeWidth=2;" vertex="1" parent="7sS6LOVP2ENTe_2VxdWP-13">
          <mxGeometry x="40" width="420" height="30" as="geometry">
            <mxRectangle width="420" height="30" as="alternateBounds" />
          </mxGeometry>
        </mxCell>
        <mxCell id="7sS6LOVP2ENTe_2VxdWP-24" style="edgeStyle=orthogonalEdgeStyle;rounded=0;sketch=1;orthogonalLoop=1;jettySize=auto;html=1;entryX=0.5;entryY=0;entryDx=0;entryDy=0;entryPerimeter=0;fontFamily=IBM Plex Mono;fontSource=https%3A%2F%2Ffonts.googleapis.com%2Fcss%3Ffamily%3DIBM%2BPlex%2BMono;fontSize=14;" edge="1" parent="WIyWlLk6GJQsqaUBKTNV-1" source="7sS6LOVP2ENTe_2VxdWP-16" target="7sS6LOVP2ENTe_2VxdWP-21">
          <mxGeometry relative="1" as="geometry" />
        </mxCell>
        <mxCell id="7sS6LOVP2ENTe_2VxdWP-16" value="&lt;b&gt;i = 0&lt;br&gt;fin = cible.length - 1&lt;br&gt;rÃ©sultat = []&lt;br&gt;&lt;/b&gt;" style="rounded=1;whiteSpace=wrap;html=1;sketch=1;fontFamily=IBM Plex Mono;fontSource=https%3A%2F%2Ffonts.googleapis.com%2Fcss%3Ffamily%3DIBM%2BPlex%2BMono;fontSize=14;align=left;spacingLeft=2;fillStyle=solid;fillColor=#fff2cc;strokeColor=#d6b656;" vertex="1" parent="WIyWlLk6GJQsqaUBKTNV-1">
          <mxGeometry x="314" y="280" width="200" height="70" as="geometry" />
        </mxCell>
        <mxCell id="7sS6LOVP2ENTe_2VxdWP-26" style="edgeStyle=orthogonalEdgeStyle;rounded=0;sketch=1;orthogonalLoop=1;jettySize=auto;html=1;entryX=0.5;entryY=0;entryDx=0;entryDy=0;fontFamily=IBM Plex Mono;fontSource=https%3A%2F%2Ffonts.googleapis.com%2Fcss%3Ffamily%3DIBM%2BPlex%2BMono;fontSize=14;exitX=0.5;exitY=1;exitDx=0;exitDy=0;exitPerimeter=0;" edge="1" parent="WIyWlLk6GJQsqaUBKTNV-1" source="7sS6LOVP2ENTe_2VxdWP-18" target="7sS6LOVP2ENTe_2VxdWP-20">
          <mxGeometry relative="1" as="geometry">
            <mxPoint x="414" y="808" as="sourcePoint" />
          </mxGeometry>
        </mxCell>
        <mxCell id="7sS6LOVP2ENTe_2VxdWP-34" value="Oui" style="edgeLabel;html=1;align=center;verticalAlign=middle;resizable=0;points=[];fontSize=14;fontFamily=IBM Plex Mono;" vertex="1" connectable="0" parent="7sS6LOVP2ENTe_2VxdWP-26">
          <mxGeometry x="-0.0308" y="2" relative="1" as="geometry">
            <mxPoint as="offset" />
          </mxGeometry>
        </mxCell>
        <mxCell id="7sS6LOVP2ENTe_2VxdWP-28" style="edgeStyle=orthogonalEdgeStyle;rounded=0;sketch=1;orthogonalLoop=1;jettySize=auto;html=1;entryX=0;entryY=0.5;entryDx=0;entryDy=0;fontFamily=IBM Plex Mono;fontSource=https%3A%2F%2Ffonts.googleapis.com%2Fcss%3Ffamily%3DIBM%2BPlex%2BMono;fontSize=14;" edge="1" parent="WIyWlLk6GJQsqaUBKTNV-1" source="7sS6LOVP2ENTe_2VxdWP-18" target="7sS6LOVP2ENTe_2VxdWP-19">
          <mxGeometry relative="1" as="geometry" />
        </mxCell>
        <mxCell id="7sS6LOVP2ENTe_2VxdWP-33" value="Non" style="edgeLabel;html=1;align=center;verticalAlign=middle;resizable=0;points=[];fontSize=14;fontFamily=IBM Plex Mono;" vertex="1" connectable="0" parent="7sS6LOVP2ENTe_2VxdWP-28">
          <mxGeometry x="-0.0991" y="2" relative="1" as="geometry">
            <mxPoint as="offset" />
          </mxGeometry>
        </mxCell>
        <mxCell id="7sS6LOVP2ENTe_2VxdWP-18" value="&lt;b&gt;cible[i].terms&lt;br&gt;.includes(recherche)&lt;/b&gt;" style="strokeWidth=2;html=1;shape=mxgraph.flowchart.decision;whiteSpace=wrap;sketch=1;fontFamily=IBM Plex Mono;fontSource=https%3A%2F%2Ffonts.googleapis.com%2Fcss%3Ffamily%3DIBM%2BPlex%2BMono;fontSize=14;fillStyle=solid;fillColor=#dae8fc;strokeColor=#6c8ebf;" vertex="1" parent="WIyWlLk6GJQsqaUBKTNV-1">
          <mxGeometry x="284" y="620" width="260" height="140" as="geometry" />
        </mxCell>
        <mxCell id="7sS6LOVP2ENTe_2VxdWP-35" style="edgeStyle=orthogonalEdgeStyle;rounded=0;sketch=1;orthogonalLoop=1;jettySize=auto;html=1;entryX=0.5;entryY=0;entryDx=0;entryDy=0;entryPerimeter=0;fontFamily=IBM Plex Mono;fontSource=https%3A%2F%2Ffonts.googleapis.com%2Fcss%3Ffamily%3DIBM%2BPlex%2BMono;fontSize=14;" edge="1" parent="WIyWlLk6GJQsqaUBKTNV-1" source="7sS6LOVP2ENTe_2VxdWP-19" target="7sS6LOVP2ENTe_2VxdWP-21">
          <mxGeometry relative="1" as="geometry">
            <Array as="points">
              <mxPoint x="680" y="400" />
              <mxPoint x="414" y="400" />
            </Array>
          </mxGeometry>
        </mxCell>
        <mxCell id="7sS6LOVP2ENTe_2VxdWP-19" value="&lt;b&gt;i++&lt;br&gt;&lt;/b&gt;" style="rounded=1;whiteSpace=wrap;html=1;sketch=1;fontFamily=IBM Plex Mono;fontSource=https%3A%2F%2Ffonts.googleapis.com%2Fcss%3Ffamily%3DIBM%2BPlex%2BMono;fontSize=14;fillStyle=solid;fillColor=#fff2cc;strokeColor=#d6b656;" vertex="1" parent="WIyWlLk6GJQsqaUBKTNV-1">
          <mxGeometry x="655" y="675" width="50" height="30" as="geometry" />
        </mxCell>
        <mxCell id="7sS6LOVP2ENTe_2VxdWP-27" style="edgeStyle=orthogonalEdgeStyle;rounded=0;sketch=1;orthogonalLoop=1;jettySize=auto;html=1;entryX=0.5;entryY=1;entryDx=0;entryDy=0;fontFamily=IBM Plex Mono;fontSource=https%3A%2F%2Ffonts.googleapis.com%2Fcss%3Ffamily%3DIBM%2BPlex%2BMono;fontSize=14;" edge="1" parent="WIyWlLk6GJQsqaUBKTNV-1" source="7sS6LOVP2ENTe_2VxdWP-20" target="7sS6LOVP2ENTe_2VxdWP-19">
          <mxGeometry relative="1" as="geometry" />
        </mxCell>
        <mxCell id="7sS6LOVP2ENTe_2VxdWP-20" value="&lt;b&gt;rÃ©sultat.push(cible[i])&lt;br&gt;&lt;/b&gt;" style="rounded=1;whiteSpace=wrap;html=1;sketch=1;fontFamily=IBM Plex Mono;fontSource=https%3A%2F%2Ffonts.googleapis.com%2Fcss%3Ffamily%3DIBM%2BPlex%2BMono;fontSize=14;fillStyle=solid;fillColor=#fff2cc;strokeColor=#d6b656;" vertex="1" parent="WIyWlLk6GJQsqaUBKTNV-1">
          <mxGeometry x="304" y="890" width="220" height="30" as="geometry" />
        </mxCell>
        <mxCell id="7sS6LOVP2ENTe_2VxdWP-25" style="edgeStyle=orthogonalEdgeStyle;rounded=0;sketch=1;orthogonalLoop=1;jettySize=auto;html=1;fontFamily=IBM Plex Mono;fontSource=https%3A%2F%2Ffonts.googleapis.com%2Fcss%3Ffamily%3DIBM%2BPlex%2BMono;fontSize=14;" edge="1" parent="WIyWlLk6GJQsqaUBKTNV-1" source="7sS6LOVP2ENTe_2VxdWP-21">
          <mxGeometry relative="1" as="geometry">
            <mxPoint x="414" y="620" as="targetPoint" />
          </mxGeometry>
        </mxCell>
        <mxCell id="7sS6LOVP2ENTe_2VxdWP-32" value="Oui" style="edgeLabel;html=1;align=center;verticalAlign=middle;resizable=0;points=[];fontSize=14;fontFamily=IBM Plex Mono;" vertex="1" connectable="0" parent="7sS6LOVP2ENTe_2VxdWP-25">
          <mxGeometry x="-0.0667" y="-2" relative="1" as="geometry">
            <mxPoint as="offset" />
          </mxGeometry>
        </mxCell>
        <mxCell id="7sS6LOVP2ENTe_2VxdWP-30" style="edgeStyle=orthogonalEdgeStyle;rounded=0;sketch=1;orthogonalLoop=1;jettySize=auto;html=1;entryX=1;entryY=0.5;entryDx=0;entryDy=0;entryPerimeter=0;fontFamily=IBM Plex Mono;fontSource=https%3A%2F%2Ffonts.googleapis.com%2Fcss%3Ffamily%3DIBM%2BPlex%2BMono;fontSize=14;" edge="1" parent="WIyWlLk6GJQsqaUBKTNV-1" source="7sS6LOVP2ENTe_2VxdWP-21" target="7sS6LOVP2ENTe_2VxdWP-22">
          <mxGeometry relative="1" as="geometry" />
        </mxCell>
        <mxCell id="7sS6LOVP2ENTe_2VxdWP-31" value="Non" style="edgeLabel;html=1;align=center;verticalAlign=middle;resizable=0;points=[];fontSize=14;fontFamily=IBM Plex Mono;" vertex="1" connectable="0" parent="7sS6LOVP2ENTe_2VxdWP-30">
          <mxGeometry x="-0.0385" y="2" relative="1" as="geometry">
            <mxPoint x="5" y="-2" as="offset" />
          </mxGeometry>
        </mxCell>
        <mxCell id="7sS6LOVP2ENTe_2VxdWP-21" value="&lt;b&gt;i &amp;lt;= fin&lt;/b&gt;" style="strokeWidth=2;html=1;shape=mxgraph.flowchart.decision;whiteSpace=wrap;sketch=1;fontFamily=IBM Plex Mono;fontSource=https%3A%2F%2Ffonts.googleapis.com%2Fcss%3Ffamily%3DIBM%2BPlex%2BMono;fontSize=14;align=center;fillStyle=solid;fillColor=#dae8fc;strokeColor=#6c8ebf;" vertex="1" parent="WIyWlLk6GJQsqaUBKTNV-1">
          <mxGeometry x="364" y="430" width="100" height="100" as="geometry" />
        </mxCell>
        <mxCell id="7sS6LOVP2ENTe_2VxdWP-22" value="return rÃ©sultat" style="strokeWidth=2;html=1;shape=mxgraph.flowchart.start_1;whiteSpace=wrap;sketch=1;fontFamily=IBM Plex Mono;fontSource=https%3A%2F%2Ffonts.googleapis.com%2Fcss%3Ffamily%3DIBM%2BPlex%2BMono;fontSize=14;align=center;fontStyle=1;fillColor=#f8cecc;strokeColor=#b85450;fillStyle=solid;" vertex="1" parent="WIyWlLk6GJQsqaUBKTNV-1">
          <mxGeometry x="130" y="440" width="120" height="80" as="geometry" />
        </mxCell>
      </root>
    </mxGraphModel>
  </diagram>
</mxfile>
